# xmcd
#
# Track frame offsets: 
#        150
#        12507
#        25619
#        39444
#        52009
#        63280
#        77397
#        89564
#        102314
#        115098
#        127920
#        141655
#        154480
#        165573
#        178066
#        188251
#        200685
#        212662
#        226457
#        238708
#        250928
#        262253
#        275913
#        288776
#        302272
#
# Disc length: 4187 seconds
#
# Revision: 2
# Processed by: cddbd v1.5.1PL0 Copyright (c) Steve Scherf et al.
# Submitted via: ExactAudioCopy v0.90b4
#
DISCID=62105919
DTITLE=Billie Holiday - The classic decade 1935-1945
DYEAR=1997
DGENRE=Blues
TTITLE0=God Bless The Child
TTITLE1=Strange Fruit
TTITLE2=Georgio On My Mind
TTITLE3=Summertime
TTITLE4=Billie's Blues
TTITLE5=These Foolish Things
TTITLE6=A Fine Romance
TTITLE7=The Man I Love
TTITLE8=My Man
TTITLE9=More Than You Know
TTITLE10=Pennies From Heaven
TTITLE11=Am I Blue?
TTITLE12=No Regrets
TTITLE13=Let's Do It
TTITLE14=When A Woman Loves A Man
TTITLE15=I've Got My Love To Keep Me Warm
TTITLE16=St Louis Blues
TTITLE17=I Cried For You
TTITLE18=I Got A Right To Sing The Blues
TTITLE19=I Can't Get Strated
TTITLE20=I've Got A Date With A Dream
TTITLE21=This Is My Last Affair
TTITLE22=Long Gone Blues
TTITLE23=Can't Help Lovin' Dat Man
TTITLE24=Sugar
EXTD=
EXTT0=
EXTT1=
EXTT2=
EXTT3=
EXTT4=
EXTT5=
EXTT6=
EXTT7=
EXTT8=
EXTT9=
EXTT10=
EXTT11=
EXTT12=
EXTT13=
EXTT14=
EXTT15=
EXTT16=
EXTT17=
EXTT18=
EXTT19=
EXTT20=
EXTT21=
EXTT22=
EXTT23=
EXTT24=
PLAYORDER=
